<?xml version="1.0" encoding="iso-8859-1"?>
<!-- Generator: Adobe Illustrator 19.0.0, SVG Export Plug-In . SVG Version: 6.00 Build 0)  -->
<svg version="1.1" id="Capa_1" xmlns="http://www.w3.org/2000/svg" xmlns:xlink="http://www.w3.org/1999/xlink" x="0px" y="0px"
	 viewBox="0 0 480 480" style="enable-background:new 0 0 480 480;" xml:space="preserve">
<path style="fill:#8D9AA5;" d="M431.648,144H48.352C26.071,143.996,8.004,162.055,8,184.336c0,0.003,0,0.005,0,0.008V352
	c0,26.51,21.49,48,48,48h368c26.51,0,48-21.49,48-48V184.344C472,162.063,453.937,144,431.656,144
	C431.653,144,431.651,144,431.648,144z"/>
<path style="fill:#5A6570;" d="M431.648,144H148c134.76,0,244,37.6,244,84s-109.24,84-244,84c-47.098,0.376-94.08-4.725-140-15.2
	V352c0,26.51,21.49,48,48,48h368c26.51,0,48-21.49,48-48V184.344C472,162.063,453.937,144,431.656,144
	C431.653,144,431.651,144,431.648,144z"/>
<path style="fill:#D1E3EE;" d="M56,304h368c26.51,0,48,21.49,48,48l0,0c0,26.51-21.49,48-48,48H56c-26.51,0-48-21.49-48-48l0,0
	C8,325.49,29.49,304,56,304z"/>
<g>
	<circle style="fill:#9FC8DD;" cx="64" cy="352" r="16"/>
	<circle style="fill:#9FC8DD;" cx="152" cy="352" r="16"/>
	<circle style="fill:#9FC8DD;" cx="240" cy="352" r="16"/>
	<circle style="fill:#9FC8DD;" cx="328" cy="352" r="16"/>
	<circle style="fill:#9FC8DD;" cx="416" cy="352" r="16"/>
</g>
<g>
	<path style="fill:#D3B585;" d="M88,144v112h112V144V80H88V144z"/>
	<path style="fill:#D3B585;" d="M280,80v64v112h112V144V80H280z"/>
</g>
<g>
	<path style="fill:#B4833F;" d="M88,80h112v64H88V80z"/>
	<path style="fill:#B4833F;" d="M280,80h112v64H280V80z"/>
</g>
<g>
	<path style="fill:#FFD884;" d="M128,80h32v112h-32V80z"/>
	<path style="fill:#FFD884;" d="M320,80h32v112h-32V80z"/>
</g>
<path d="M64,328c-13.255,0-24,10.745-24,24s10.745,24,24,24s24-10.745,24-24S77.255,328,64,328z M64,360c-4.418,0-8-3.582-8-8
	s3.582-8,8-8c4.418,0,8,3.582,8,8S68.418,360,64,360z"/>
<path d="M152,328c-13.255,0-24,10.745-24,24s10.745,24,24,24s24-10.745,24-24S165.255,328,152,328z M152,360c-4.418,0-8-3.582-8-8
	s3.582-8,8-8s8,3.582,8,8S156.418,360,152,360z"/>
<path d="M240,328c-13.255,0-24,10.745-24,24s10.745,24,24,24c13.255,0,24-10.745,24-24S253.255,328,240,328z M240,360
	c-4.418,0-8-3.582-8-8s3.582-8,8-8s8,3.582,8,8S244.418,360,240,360z"/>
<path d="M328,328c-13.255,0-24,10.745-24,24s10.745,24,24,24s24-10.745,24-24S341.255,328,328,328z M328,360c-4.418,0-8-3.582-8-8
	s3.582-8,8-8s8,3.582,8,8S332.418,360,328,360z"/>
<path d="M416,328c-13.255,0-24,10.745-24,24s10.745,24,24,24s24-10.745,24-24S429.255,328,416,328z M416,360c-4.418,0-8-3.582-8-8
	s3.582-8,8-8s8,3.582,8,8S420.418,360,416,360z"/>
<path d="M431.648,136H400V80c0-4.418-3.582-8-8-8H280c-4.418,0-8,3.582-8,8v56h-64V80c0-4.418-3.582-8-8-8H88c-4.418,0-8,3.582-8,8
	v56H48.352C21.659,136.026,0.026,157.659,0,184.352V352c0.04,30.911,25.089,55.96,56,56h368c30.911-0.04,55.96-25.089,56-56V184.352
	C479.974,157.659,458.341,136.026,431.648,136z M288,152h24v40c0,4.418,3.582,8,8,8h32c4.418,0,8-3.582,8-8v-40h24v96h-96V152z
	 M384,136h-24V88h24V136z M344,88v96h-16V88H344z M288,88h24v48h-24V88z M96,152h24v40c0,4.418,3.582,8,8,8h32c4.418,0,8-3.582,8-8
	v-40h24v96H96V152z M192,136h-24V88h24V136z M152,88v96h-16V88H152z M96,88h24v48H96V88z M424,392H56c-22.091,0-40-17.909-40-40
	s17.909-40,40-40h368c22.091,0,40,17.909,40,40S446.091,392,424,392z M424,296H56c-15.067-0.004-29.494,6.088-40,16.888V184.352
	c0.022-17.858,14.494-32.33,32.352-32.352H80v104c0,4.418,3.582,8,8,8h112c4.418,0,8-3.582,8-8V152h64v104c0,4.418,3.582,8,8,8h112
	c4.418,0,8-3.582,8-8V152h31.648c17.86,0.018,32.334,14.492,32.352,32.352v128.536C453.494,302.088,439.067,295.996,424,296z"/>
<g>
</g>
<g>
</g>
<g>
</g>
<g>
</g>
<g>
</g>
<g>
</g>
<g>
</g>
<g>
</g>
<g>
</g>
<g>
</g>
<g>
</g>
<g>
</g>
<g>
</g>
<g>
</g>
<g>
</g>
</svg>
