<svg id="Layer_1" data-name="Layer 1" xmlns="http://www.w3.org/2000/svg" viewBox="0 0 78.41 31.99"><defs><style>.cls-1{fill:#fcfcfc;}.cls-2{fill:#fff;}</style></defs><title>ggg</title><path class="cls-1" d="M166.57,23.66h-.2l-.25,0-.22,0-.14,0v-.8a.85.85,0,0,0,.34.08l.34,0,.37,0a.94.94,0,0,0,.44-.26,2.34,2.34,0,0,0,.46-.68,6.1,6.1,0,0,0,.41-1.35,20.72,20.72,0,0,0,.28-2.22c.08-.9.11-2,.11-3.31V13.58h6.15v10h-.95V14.4h-4.27v.54c0,1.46-.05,2.68-.14,3.68a16.92,16.92,0,0,1-.38,2.46,6,6,0,0,1-.54,1.5,2.49,2.49,0,0,1-.61.76,1.35,1.35,0,0,1-.63.28A4,4,0,0,1,166.57,23.66Z" transform="translate(-165.76 -13.47)"/><path class="cls-1" d="M176.49,16.36h.89v6.18l4-6.18h1.09v7.22h-.88V17.39l-4,6.19h-1.1Z" transform="translate(-165.76 -13.47)"/><path class="cls-1" d="M187.18,23.78a3.28,3.28,0,0,1-1.47-.31,3.19,3.19,0,0,1-1.07-.81,3.59,3.59,0,0,1-.66-1.22,5,5,0,0,1,0-2.94,3.5,3.5,0,0,1,.66-1.22,3.25,3.25,0,0,1,1.07-.83,3.42,3.42,0,0,1,1.47-.3,3.12,3.12,0,0,1,2,.61,2.6,2.6,0,0,1,1,1.86h-.88a2.4,2.4,0,0,0-.67-1.26,1.93,1.93,0,0,0-1.37-.46,2.23,2.23,0,0,0-1.11.27,2.31,2.31,0,0,0-.79.7,3.09,3.09,0,0,0-.48,1,4,4,0,0,0,0,2.25,3.09,3.09,0,0,0,.48,1,2.31,2.31,0,0,0,.79.7,2.23,2.23,0,0,0,1.11.27,1.87,1.87,0,0,0,.77-.16,2.09,2.09,0,0,0,.64-.42,2.32,2.32,0,0,0,.46-.65,2.56,2.56,0,0,0,.23-.83h.88a3.33,3.33,0,0,1-1,2.05A2.82,2.82,0,0,1,187.18,23.78Z" transform="translate(-165.76 -13.47)"/><path class="cls-1" d="M193.21,17.11h-2.67v-.75h6.23v.75h-2.68v6.47h-.88Z" transform="translate(-165.76 -13.47)"/><path class="cls-1" d="M199.62,23.78a3.56,3.56,0,0,1-.94-.12,2.14,2.14,0,0,1-.77-.38,1.7,1.7,0,0,1-.52-.66,2.1,2.1,0,0,1-.19-.94,1.82,1.82,0,0,1,.34-1.18,2.16,2.16,0,0,1,.88-.65,5.08,5.08,0,0,1,1.25-.31c.46-.07.93-.12,1.41-.18l.48-.07a.91.91,0,0,0,.36-.15.67.67,0,0,0,.21-.28,1.09,1.09,0,0,0,.08-.48,1.69,1.69,0,0,0-.14-.73,1.19,1.19,0,0,0-.41-.45,1.61,1.61,0,0,0-.6-.24,4.35,4.35,0,0,0-.74-.06,2.19,2.19,0,0,0-1.37.4,1.52,1.52,0,0,0-.56,1.27h-.88a2.33,2.33,0,0,1,.87-1.85,3.43,3.43,0,0,1,2.05-.57,5.2,5.2,0,0,1,1,.09,2.27,2.27,0,0,1,.85.34,1.88,1.88,0,0,1,.62.71,2.63,2.63,0,0,1,.23,1.18v3.84a.47.47,0,0,0,.52.53.58.58,0,0,0,.28-.06v.74l-.27.05h-.3a1.32,1.32,0,0,1-.54-.09.75.75,0,0,1-.32-.26,1,1,0,0,1-.14-.4,2.64,2.64,0,0,1,0-.51h0a6.69,6.69,0,0,1-.48.62,2.21,2.21,0,0,1-.55.46,2.69,2.69,0,0,1-.69.28A4,4,0,0,1,199.62,23.78Zm.07-.73a2.86,2.86,0,0,0,1-.16,2.39,2.39,0,0,0,.8-.44,2.3,2.3,0,0,0,.55-.72,2.24,2.24,0,0,0,.2-.95V19.63h0a.51.51,0,0,1-.32.23,2.92,2.92,0,0,1-.42.09c-.37.07-.76.13-1.15.18a6.53,6.53,0,0,0-1.09.23,2,2,0,0,0-.8.45,1,1,0,0,0-.32.81,1.38,1.38,0,0,0,.13.59,1.33,1.33,0,0,0,.36.45,1.61,1.61,0,0,0,.51.29A1.77,1.77,0,0,0,199.69,23.05Z" transform="translate(-165.76 -13.47)"/><path class="cls-1" d="M204.84,16.36h.89v6.18l4-6.18h1.09v7.22h-.88V17.39l-4,6.19h-1.1Zm3-1.07a1.85,1.85,0,0,1-1.37-.47,2.18,2.18,0,0,1-.61-1.35h.55a1.24,1.24,0,0,0,.44.84,1.5,1.5,0,0,0,1,.31,1.58,1.58,0,0,0,1-.3,1.43,1.43,0,0,0,.5-.85h.54a2.28,2.28,0,0,1-.66,1.35A1.9,1.9,0,0,1,207.8,15.29Z" transform="translate(-165.76 -13.47)"/><path class="cls-1" d="M216.35,16.36h3.31a2.87,2.87,0,0,1,1.7.43,1.47,1.47,0,0,1,.61,1.27,1.74,1.74,0,0,1-.33,1.08,1.81,1.81,0,0,1-.92.6v0a2,2,0,0,1,1.12.56,1.77,1.77,0,0,1,.41,1.24,1.8,1.8,0,0,1-.66,1.5,3.06,3.06,0,0,1-1.93.52h-3.31Zm3.21,3.1a1.78,1.78,0,0,0,1.14-.31,1.06,1.06,0,0,0,.38-.86c0-.79-.51-1.18-1.52-1.18h-2.33v2.35Zm0,3.36a2.2,2.2,0,0,0,1.36-.34,1.2,1.2,0,0,0,.44-1,1.11,1.11,0,0,0-.44-1,2.26,2.26,0,0,0-1.36-.34h-2.33v2.66Z" transform="translate(-165.76 -13.47)"/><path class="cls-1" d="M223.59,16.36h.88v3.05h4.1V16.36h.89v7.22h-.89V20.16h-4.1v3.42h-.88Z" transform="translate(-165.76 -13.47)"/><path class="cls-1" d="M231.11,16.36H232v6.18l4-6.18h1.09v7.22h-.88V17.39l-4,6.19h-1.09Z" transform="translate(-165.76 -13.47)"/><path class="cls-1" d="M241.27,23.78a3.18,3.18,0,0,1-2.18-.67,2.53,2.53,0,0,1-.8-1.8h.88a2.55,2.55,0,0,0,.2.71,1.5,1.5,0,0,0,.39.54,1.69,1.69,0,0,0,.62.34,3.51,3.51,0,0,0,1.89,0,1.49,1.49,0,0,0,.59-.37,1.21,1.21,0,0,0,.3-.51,1.76,1.76,0,0,0,.09-.55,1.27,1.27,0,0,0-.36-.92,1.58,1.58,0,0,0-1.18-.38H240.5v-.67h1a1.69,1.69,0,0,0,1.07-.34,1.12,1.12,0,0,0,.45-1,1.64,1.64,0,0,0-.06-.42.92.92,0,0,0-.26-.41,1.37,1.37,0,0,0-.55-.31,3.18,3.18,0,0,0-.91-.11,2,2,0,0,0-1.43.43,1.7,1.7,0,0,0-.51,1.11h-.87a2.64,2.64,0,0,1,.31-1.1,2.18,2.18,0,0,1,.63-.71,2.45,2.45,0,0,1,.87-.38,4.76,4.76,0,0,1,1-.11,4.9,4.9,0,0,1,1,.1,2.8,2.8,0,0,1,.85.34,1.72,1.72,0,0,1,.57.6,1.83,1.83,0,0,1,.21.91,1.54,1.54,0,0,1-.1.58,1.59,1.59,0,0,1-.26.48,1.37,1.37,0,0,1-.37.35,1.23,1.23,0,0,1-.43.18v0a2.21,2.21,0,0,1,.5.15,1.42,1.42,0,0,1,.45.32,1.48,1.48,0,0,1,.32.5,1.75,1.75,0,0,1,.13.72,2.09,2.09,0,0,1-.24,1,2.17,2.17,0,0,1-.64.74,2.91,2.91,0,0,1-.92.44A4,4,0,0,1,241.27,23.78Z" transform="translate(-165.76 -13.47)"/><path class="cls-2" d="M196.19,34.77a.84.84,0,0,0-1.16,0,.79.79,0,0,0,0,1.15l9.39,9.31a.84.84,0,0,0,1.16,0L215,35.92a.79.79,0,0,0,0-1.15.84.84,0,0,0-1.16,0L205,43.26Z" transform="translate(-165.76 -13.47)"/></svg>