<svg id="Layer_1" data-name="Layer 1" xmlns="http://www.w3.org/2000/svg" viewBox="0 0 214.3 18.24"><defs><style>.cls-1{fill:#fcfcfc;}</style></defs><title>ggg2</title><path class="cls-1" d="M98.42,9.62h2l4.94,12.52,4.92-12.52h2V23.9h-1.36V11.56h0L106,23.9h-1.28l-4.9-12.34h0V23.9H98.42Z" transform="translate(-98.42 -9.46)"/><path class="cls-1" d="M117.78,24.18a5.31,5.31,0,0,1-1.35-.17,2.91,2.91,0,0,1-1.1-.54,2.56,2.56,0,0,1-.74-.94,3.08,3.08,0,0,1-.27-1.34,2.67,2.67,0,0,1,.48-1.69,3,3,0,0,1,1.27-.93,7.6,7.6,0,0,1,1.78-.45l2-.25a6.34,6.34,0,0,0,.69-.1,1.19,1.19,0,0,0,.51-.21.93.93,0,0,0,.31-.41,1.8,1.8,0,0,0,.11-.67,2.28,2.28,0,0,0-.21-1.05,1.66,1.66,0,0,0-.58-.65,2.34,2.34,0,0,0-.86-.33,5.87,5.87,0,0,0-1-.09,3.19,3.19,0,0,0-2,.57,2.19,2.19,0,0,0-.8,1.81h-1.26A3.35,3.35,0,0,1,116,14.1a4.84,4.84,0,0,1,2.93-.82,7,7,0,0,1,1.36.13,3.37,3.37,0,0,1,1.22.49,2.72,2.72,0,0,1,.88,1,3.6,3.6,0,0,1,.34,1.69v5.48a.66.66,0,0,0,.74.76,1,1,0,0,0,.4-.08v1.06l-.39.06-.43,0a1.84,1.84,0,0,1-.77-.13,1.1,1.1,0,0,1-.45-.37,1.3,1.3,0,0,1-.21-.57,5.35,5.35,0,0,1,0-.73h0a9.85,9.85,0,0,1-.69.89,3.22,3.22,0,0,1-.78.65,3.67,3.67,0,0,1-1,.4A5.57,5.57,0,0,1,117.78,24.18Zm.1-1a4.24,4.24,0,0,0,1.38-.22,3.49,3.49,0,0,0,1.15-.64,3,3,0,0,0,.78-1,3.12,3.12,0,0,0,.29-1.36V18.26h0a.71.71,0,0,1-.46.32,5,5,0,0,1-.6.14c-.53.09-1.08.18-1.65.25a8.46,8.46,0,0,0-1.55.33,3,3,0,0,0-1.15.64,1.51,1.51,0,0,0-.45,1.16,1.8,1.8,0,0,0,.19.85,2.12,2.12,0,0,0,.51.64A2.19,2.19,0,0,0,117,23,2.74,2.74,0,0,0,117.88,23.14Z" transform="translate(-98.42 -9.46)"/><path class="cls-1" d="M125.36,13.58h6.82v1.08h-5.56V23.9h-1.26Z" transform="translate(-98.42 -9.46)"/><path class="cls-1" d="M136.16,24.18a5.31,5.31,0,0,1-1.35-.17,2.91,2.91,0,0,1-1.1-.54,2.56,2.56,0,0,1-.74-.94,3.08,3.08,0,0,1-.27-1.34,2.67,2.67,0,0,1,.48-1.69,3,3,0,0,1,1.27-.93,7.6,7.6,0,0,1,1.78-.45l2-.25a6.34,6.34,0,0,0,.69-.1,1.19,1.19,0,0,0,.51-.21.93.93,0,0,0,.31-.41,1.8,1.8,0,0,0,.11-.67,2.28,2.28,0,0,0-.21-1.05,1.66,1.66,0,0,0-.58-.65,2.34,2.34,0,0,0-.86-.33,5.87,5.87,0,0,0-1.05-.09,3.19,3.19,0,0,0-2,.57,2.19,2.19,0,0,0-.8,1.81h-1.26a3.35,3.35,0,0,1,1.25-2.64,4.84,4.84,0,0,1,2.93-.82,7,7,0,0,1,1.36.13,3.37,3.37,0,0,1,1.22.49,2.72,2.72,0,0,1,.88,1,3.6,3.6,0,0,1,.34,1.69v5.48a.66.66,0,0,0,.74.76,1,1,0,0,0,.4-.08v1.06l-.39.06-.43,0a1.84,1.84,0,0,1-.77-.13,1.1,1.1,0,0,1-.45-.37,1.3,1.3,0,0,1-.21-.57,5.35,5.35,0,0,1,0-.73h0a9.85,9.85,0,0,1-.69.89,3.22,3.22,0,0,1-.78.65,3.67,3.67,0,0,1-1,.4A5.57,5.57,0,0,1,136.16,24.18Zm.1-1a4.24,4.24,0,0,0,1.38-.22,3.49,3.49,0,0,0,1.15-.64,3,3,0,0,0,.78-1,3.12,3.12,0,0,0,.29-1.36V18.26h0a.71.71,0,0,1-.46.32,5,5,0,0,1-.6.14c-.53.09-1.08.18-1.65.25a8.46,8.46,0,0,0-1.55.33,3,3,0,0,0-1.15.64A1.51,1.51,0,0,0,134,21.1a1.8,1.8,0,0,0,.19.85,2.12,2.12,0,0,0,.51.64,2.19,2.19,0,0,0,.73.41A2.78,2.78,0,0,0,136.26,23.14Z" transform="translate(-98.42 -9.46)"/><path class="cls-1" d="M147.26,24.18a4.52,4.52,0,0,1-3.11-.95A3.62,3.62,0,0,1,143,20.66h1.26a3.84,3.84,0,0,0,.28,1,2.19,2.19,0,0,0,.56.78,2.45,2.45,0,0,0,.89.48,4.34,4.34,0,0,0,1.29.17,4.2,4.2,0,0,0,1.4-.2,2.17,2.17,0,0,0,.85-.53,1.8,1.8,0,0,0,.43-.72,2.77,2.77,0,0,0,.12-.8,1.83,1.83,0,0,0-.51-1.31,2.24,2.24,0,0,0-1.69-.54h-1.72V18h1.42a2.5,2.5,0,0,0,1.54-.48,1.62,1.62,0,0,0,.64-1.39,2.24,2.24,0,0,0-.09-.6,1.28,1.28,0,0,0-.37-.58,2.07,2.07,0,0,0-.78-.44,4.22,4.22,0,0,0-1.3-.17,2.86,2.86,0,0,0-2.05.62,2.56,2.56,0,0,0-.73,1.58H143.2a3.73,3.73,0,0,1,.44-1.57,3,3,0,0,1,.9-1,3.57,3.57,0,0,1,1.24-.54,6.34,6.34,0,0,1,1.46-.16,7,7,0,0,1,1.49.15,3.74,3.74,0,0,1,1.21.48,2.41,2.41,0,0,1,.82.86,2.56,2.56,0,0,1,.3,1.29,2.47,2.47,0,0,1-.14.84,2.62,2.62,0,0,1-.37.68,2.09,2.09,0,0,1-.53.5,1.75,1.75,0,0,1-.62.26v0a2.83,2.83,0,0,1,.72.22,2.11,2.11,0,0,1,1.1,1.17,2.67,2.67,0,0,1,.18,1,3,3,0,0,1-.34,1.47,3.18,3.18,0,0,1-.91,1.05,4,4,0,0,1-1.32.63A5.78,5.78,0,0,1,147.26,24.18Z" transform="translate(-98.42 -9.46)"/><path class="cls-1" d="M153.32,13.58h1.26v8.84l5.7-8.84h1.56V23.9h-1.26V15.06l-5.7,8.84h-1.56Z" transform="translate(-98.42 -9.46)"/><path class="cls-1" d="M164.2,13.58h1.26v4.36h5.86V13.58h1.26V23.9h-1.26V19h-5.86V23.9H164.2Z" transform="translate(-98.42 -9.46)"/><path class="cls-1" d="M180.52,13.58h1.26v5.3l5.72-5.3h1.68l-4.38,4,4.64,6.28h-1.58l-4-5.42-2.1,1.94V23.9h-1.26Z" transform="translate(-98.42 -9.46)"/><path class="cls-1" d="M193.38,24.18A5.31,5.31,0,0,1,192,24a2.91,2.91,0,0,1-1.1-.54,2.56,2.56,0,0,1-.74-.94,3.08,3.08,0,0,1-.27-1.34,2.67,2.67,0,0,1,.48-1.69,3,3,0,0,1,1.27-.93,7.6,7.6,0,0,1,1.78-.45l2-.25a6.34,6.34,0,0,0,.69-.1,1.19,1.19,0,0,0,.51-.21.93.93,0,0,0,.31-.41,1.8,1.8,0,0,0,.11-.67,2.28,2.28,0,0,0-.21-1.05,1.66,1.66,0,0,0-.58-.65,2.34,2.34,0,0,0-.86-.33,5.87,5.87,0,0,0-1.05-.09,3.19,3.19,0,0,0-2,.57,2.19,2.19,0,0,0-.8,1.81h-1.26a3.35,3.35,0,0,1,1.25-2.64,4.84,4.84,0,0,1,2.93-.82,7,7,0,0,1,1.36.13,3.37,3.37,0,0,1,1.22.49,2.72,2.72,0,0,1,.88,1,3.6,3.6,0,0,1,.34,1.69v5.48a.66.66,0,0,0,.74.76,1,1,0,0,0,.4-.08v1.06l-.39.06-.43,0a1.84,1.84,0,0,1-.77-.13,1.1,1.1,0,0,1-.45-.37,1.3,1.3,0,0,1-.21-.57,5.35,5.35,0,0,1,0-.73h0a9.85,9.85,0,0,1-.69.89,3.22,3.22,0,0,1-.78.65,3.67,3.67,0,0,1-1,.4A5.57,5.57,0,0,1,193.38,24.18Zm.1-1a4.24,4.24,0,0,0,1.38-.22,3.49,3.49,0,0,0,1.15-.64,3,3,0,0,0,.78-1,3.12,3.12,0,0,0,.29-1.36V18.26h0a.71.71,0,0,1-.46.32,5,5,0,0,1-.6.14c-.53.09-1.08.18-1.65.25a8.46,8.46,0,0,0-1.55.33,3,3,0,0,0-1.15.64,1.51,1.51,0,0,0-.45,1.16,1.8,1.8,0,0,0,.19.85,2.12,2.12,0,0,0,.51.64,2.19,2.19,0,0,0,.73.41A2.74,2.74,0,0,0,193.48,23.14Z" transform="translate(-98.42 -9.46)"/><path class="cls-1" d="M200.86,13.58h1.26v5.3l5.72-5.3h1.68l-4.38,4,4.64,6.28H208.2l-4-5.42-2.1,1.94V23.9h-1.26Z" transform="translate(-98.42 -9.46)"/><path class="cls-1" d="M224.8,23.9h-8.44V13.58h1.26v9.24h5.66V13.58h1.26v9.24h1.52v4.34H224.8Z" transform="translate(-98.42 -9.46)"/><path class="cls-1" d="M231.56,24.18a4.74,4.74,0,0,1-2.12-.43A3.88,3.88,0,0,1,228,22.57a5,5,0,0,1-.83-1.73,7.84,7.84,0,0,1-.27-2.1,7.48,7.48,0,0,1,.27-2A5.24,5.24,0,0,1,228,15a4.13,4.13,0,0,1,1.44-1.24,4.48,4.48,0,0,1,2.12-.47,4.26,4.26,0,0,1,2.12.5,4.19,4.19,0,0,1,1.43,1.31A5.37,5.37,0,0,1,235.9,17a8.46,8.46,0,0,1,.2,2.13h-7.94a5.39,5.39,0,0,0,.19,1.42,4,4,0,0,0,.61,1.3,3.37,3.37,0,0,0,1.06,1,3,3,0,0,0,1.54.38,3.06,3.06,0,0,0,2.16-.72,3.79,3.79,0,0,0,1.08-1.92h1.26a5.09,5.09,0,0,1-1.47,2.72A4.37,4.37,0,0,1,231.56,24.18ZM234.84,18a4.54,4.54,0,0,0-.25-1.37,3.61,3.61,0,0,0-.65-1.15,3.1,3.1,0,0,0-1-.81,2.87,2.87,0,0,0-1.36-.31,2.92,2.92,0,0,0-1.38.31,3.1,3.1,0,0,0-1,.81,3.93,3.93,0,0,0-.67,1.17,5.33,5.33,0,0,0-.33,1.35Z" transform="translate(-98.42 -9.46)"/><path class="cls-1" d="M237.68,24l-.24,0-.29,0-.28-.05-.19-.05v-1.1a2.6,2.6,0,0,0,.48.1,3.81,3.81,0,0,0,.54,0,1.85,1.85,0,0,0,.44-.06,1,1,0,0,0,.48-.33,2.83,2.83,0,0,0,.46-.85,8.34,8.34,0,0,0,.38-1.61c.11-.69.19-1.55.26-2.6s.1-2.33.1-3.85h6.9V23.9h-1.26V14.66H241c0,1.49,0,2.75-.13,3.79a19.65,19.65,0,0,1-.36,2.6,6.51,6.51,0,0,1-.56,1.63,2.63,2.63,0,0,1-.68.89,1.84,1.84,0,0,1-.78.36A4.57,4.57,0,0,1,237.68,24Z" transform="translate(-98.42 -9.46)"/><path class="cls-1" d="M249.08,13.58h1.26V17.7h3.34a3.43,3.43,0,0,1,2.38.8,2.94,2.94,0,0,1,.88,2.27,3,3,0,0,1-.88,2.3,3.35,3.35,0,0,1-2.38.83h-4.6Zm4.3,9.24a2.51,2.51,0,0,0,1.69-.52,1.9,1.9,0,0,0,.61-1.53,1.81,1.81,0,0,0-.61-1.5,2.62,2.62,0,0,0-1.69-.49h-3v4Zm5.5-9.24h1.26V23.9h-1.26Z" transform="translate(-98.42 -9.46)"/><path class="cls-1" d="M262.5,13.58h1.26v8.84l5.7-8.84H271V23.9h-1.26V15.06l-5.7,8.84H262.5Zm4.22-1.52a2.69,2.69,0,0,1-2-.67,3.07,3.07,0,0,1-.86-1.93h.78a1.81,1.81,0,0,0,.63,1.2,2.18,2.18,0,0,0,1.43.44,2.21,2.21,0,0,0,1.41-.43,2,2,0,0,0,.71-1.21h.78a3.36,3.36,0,0,1-.94,1.93A2.78,2.78,0,0,1,266.72,12.06Z" transform="translate(-98.42 -9.46)"/><path class="cls-1" d="M278.94,13.58h1.68l3.84,8.9,3.8-8.9h1.68V23.9h-1.26V15.4h-.06L285,23.9h-1.12l-3.62-8.5h-.06v8.5h-1.26Z" transform="translate(-98.42 -9.46)"/><path class="cls-1" d="M292.3,13.58h1.26v8.84l5.7-8.84h1.56V23.9h-1.26V15.06l-5.7,8.84H292.3Z" transform="translate(-98.42 -9.46)"/><path class="cls-1" d="M303.2,13.58h1.16v2h0a3.34,3.34,0,0,1,1.43-1.67,4.34,4.34,0,0,1,2.25-.59,4.55,4.55,0,0,1,2.05.44,4.2,4.2,0,0,1,1.45,1.19,5.25,5.25,0,0,1,.86,1.74,7.93,7.93,0,0,1,.28,2.09,7.84,7.84,0,0,1-.28,2.1,5.29,5.29,0,0,1-.86,1.73,4.17,4.17,0,0,1-1.45,1.18,4.55,4.55,0,0,1-2.05.43A4.66,4.66,0,0,1,307,24a3.72,3.72,0,0,1-1-.42,3.38,3.38,0,0,1-.85-.7,2.9,2.9,0,0,1-.57-1h0V27.7H303.2Zm4.88,9.56a2.91,2.91,0,0,0,1.54-.39,3.37,3.37,0,0,0,1.05-1,4.53,4.53,0,0,0,.6-1.4,6.75,6.75,0,0,0,0-3.18,4.53,4.53,0,0,0-.6-1.4,3.37,3.37,0,0,0-1.05-1,2.91,2.91,0,0,0-1.54-.39,3.76,3.76,0,0,0-1.75.36,3.05,3.05,0,0,0-1.11,1,3.7,3.7,0,0,0-.59,1.39,7.66,7.66,0,0,0-.17,1.68,6.65,6.65,0,0,0,.19,1.59,3.94,3.94,0,0,0,.62,1.4,3.21,3.21,0,0,0,1.12,1A3.38,3.38,0,0,0,308.08,23.14Z" transform="translate(-98.42 -9.46)"/></svg>