<svg id="Layer_1" data-name="Layer 1" xmlns="http://www.w3.org/2000/svg" viewBox="0 0 410.18 130.86"><defs><style>.cls-1{fill:#009688;}.cls-1,.cls-2,.cls-3,.cls-4,.cls-5,.cls-6,.cls-7{stroke:#fff;stroke-miterlimit:10;stroke-width:0.05px;}.cls-2{fill:#e74c78;}.cls-3{fill:#d14775;}.cls-4{fill:#ea6087;}.cls-5{fill:#03887b;}.cls-6{fill:#01a493;}.cls-7{fill:#005add;}</style></defs><title>gm</title><rect class="cls-1" x="20.13" y="-0.39" width="10" height="10" transform="translate(0.17 0.37) rotate(0.12)"/><rect class="cls-1" x="30.13" y="-0.36" width="10" height="10" transform="translate(0.17 0.35) rotate(0.12)"/><rect class="cls-1" x="40.13" y="-0.34" width="10" height="10" transform="translate(0.17 0.32) rotate(0.12)"/><rect class="cls-1" x="50.13" y="-0.32" width="10" height="10" transform="translate(0.17 0.3) rotate(0.12)"/><rect class="cls-1" x="60.13" y="-0.3" width="10" height="10" transform="translate(0.17 0.28) rotate(0.12)"/><rect class="cls-2" x="100.13" y="-0.21" width="10" height="10" transform="translate(0.17 0.2) rotate(0.12)"/><rect class="cls-2" x="110.13" y="-0.19" width="10" height="10" transform="translate(0.17 0.17) rotate(0.12)"/><rect class="cls-3" x="120.13" y="-0.17" width="10" height="10" transform="translate(0.17 0.15) rotate(0.12)"/><rect class="cls-4" x="130.13" y="-0.15" width="10" height="10" transform="translate(0.17 0.13) rotate(0.12)"/><rect class="cls-2" x="150.13" y="-0.11" width="10" height="10" transform="translate(0.17 0.09) rotate(0.12)"/><rect class="cls-2" x="160.13" y="-0.09" width="10" height="10" transform="translate(0.17 0.07) rotate(0.12)"/><rect class="cls-2" x="170.13" y="-0.06" width="10" height="10" transform="translate(0.17 0.05) rotate(0.12)"/><rect class="cls-4" x="180.13" y="-0.04" width="10" height="10" transform="translate(0.18 0.02) rotate(0.12)"/><rect class="cls-2" x="200.13" width="10" height="10" transform="translate(0.18 -0.02) rotate(0.12)"/><rect class="cls-2" x="210.13" y="0.02" width="10" height="10" transform="translate(0.18 -0.04) rotate(0.12)"/><rect class="cls-4" x="220.13" y="0.04" width="10" height="10" transform="translate(0.18 -0.06) rotate(0.12)"/><rect class="cls-2" x="230.13" y="0.06" width="10" height="10" transform="translate(0.18 -0.08) rotate(0.12)"/><rect class="cls-4" x="250.13" y="0.11" width="10" height="10" transform="translate(0.18 -0.13) rotate(0.12)"/><rect class="cls-4" x="280.13" y="0.17" width="10" height="10" transform="translate(0.18 -0.19) rotate(0.12)"/><rect class="cls-1" x="10.11" y="9.59" width="10" height="10" transform="translate(0.2 0.39) rotate(0.12)"/><rect class="cls-1" x="20.11" y="9.61" width="10" height="10" transform="translate(0.2 0.37) rotate(0.12)"/><rect class="cls-5" x="30.11" y="9.64" width="10" height="10" transform="translate(0.2 0.35) rotate(0.12)"/><rect class="cls-1" x="40.11" y="9.66" width="10" height="10" transform="translate(0.2 0.32) rotate(0.12)"/><rect class="cls-6" x="50.11" y="9.68" width="10" height="10" transform="translate(0.2 0.3) rotate(0.12)"/><rect class="cls-1" x="60.11" y="9.7" width="10" height="10" transform="translate(0.2 0.28) rotate(0.12)"/><rect class="cls-1" x="70.11" y="9.72" width="10" height="10" transform="translate(0.2 0.26) rotate(0.12)"/><rect class="cls-2" x="100.11" y="9.79" width="10" height="10" transform="translate(0.2 0.2) rotate(0.12)"/><rect class="cls-2" x="130.11" y="9.85" width="10" height="10" transform="translate(0.2 0.13) rotate(0.12)"/><rect class="cls-4" x="150.11" y="9.89" width="10" height="10" transform="translate(0.2 0.09) rotate(0.12)"/><rect class="cls-2" x="200.11" y="10" width="10" height="10" transform="translate(0.2 -0.02) rotate(0.12)"/><rect class="cls-2" x="250.11" y="10.11" width="10" height="10" transform="translate(0.2 -0.13) rotate(0.12)"/><rect class="cls-2" x="270.11" y="10.15" width="10" height="10" transform="translate(0.2 -0.17) rotate(0.12)"/><rect class="cls-1" x="0.09" y="19.57" width="10" height="10" transform="translate(0.22 0.41) rotate(0.12)"/><rect class="cls-1" x="10.09" y="19.59" width="10" height="10" transform="translate(0.22 0.39) rotate(0.12)"/><rect class="cls-1" x="20.09" y="19.61" width="10" height="10" transform="translate(0.22 0.37) rotate(0.12)"/><rect class="cls-1" x="30.09" y="19.64" width="10" height="10" transform="translate(0.22 0.35) rotate(0.12)"/><rect class="cls-1" x="40.09" y="19.66" width="10" height="10" transform="translate(0.22 0.32) rotate(0.12)"/><rect class="cls-1" x="50.09" y="19.68" width="10" height="10" transform="translate(0.22 0.3) rotate(0.12)"/><rect class="cls-1" x="60.09" y="19.7" width="10" height="10" transform="translate(0.22 0.28) rotate(0.12)"/><rect class="cls-1" x="70.09" y="19.72" width="10" height="10" transform="translate(0.22 0.26) rotate(0.12)"/><rect class="cls-6" x="80.09" y="19.74" width="10" height="10" transform="translate(0.22 0.24) rotate(0.12)"/><rect class="cls-4" x="100.09" y="19.79" width="10" height="10" transform="translate(0.22 0.2) rotate(0.12)"/><rect class="cls-2" x="150.09" y="19.89" width="10" height="10" transform="translate(0.22 0.09) rotate(0.12)"/><rect class="cls-2" x="160.09" y="19.91" width="10" height="10" transform="translate(0.22 0.07) rotate(0.12)"/><rect class="cls-3" x="170.09" y="19.94" width="10" height="10" transform="translate(0.22 0.05) rotate(0.12)"/><rect class="cls-2" x="180.09" y="19.96" width="10" height="10" transform="translate(0.22 0.02) rotate(0.12)"/><rect class="cls-2" x="200.09" y="20" width="10" height="10" transform="translate(0.22 -0.02) rotate(0.12)"/><rect class="cls-2" x="210.09" y="20.02" width="10" height="10" transform="translate(0.22 -0.04) rotate(0.12)"/><rect class="cls-2" x="220.09" y="20.04" width="10" height="10" transform="translate(0.22 -0.06) rotate(0.12)"/><rect class="cls-2" x="230.09" y="20.06" width="10" height="10" transform="translate(0.22 -0.08) rotate(0.12)"/><rect class="cls-2" x="250.09" y="20.11" width="10" height="10" transform="translate(0.22 -0.13) rotate(0.12)"/><rect class="cls-2" x="260.09" y="20.13" width="10" height="10" transform="translate(0.22 -0.15) rotate(0.12)"/><rect class="cls-1" x="0.06" y="29.57" width="10" height="10" transform="translate(0.24 0.41) rotate(0.12)"/><rect class="cls-1" x="10.06" y="29.59" width="10" height="10" transform="translate(0.24 0.39) rotate(0.12)"/><rect class="cls-1" x="40.06" y="29.66" width="10" height="10" transform="translate(0.24 0.33) rotate(0.12)"/><rect class="cls-1" x="70.06" y="29.72" width="10" height="10" transform="translate(0.24 0.26) rotate(0.12)"/><rect class="cls-1" x="80.06" y="29.74" width="10" height="10" transform="translate(0.24 0.24) rotate(0.12)"/><rect class="cls-2" x="100.06" y="29.79" width="10" height="10" transform="translate(0.24 0.2) rotate(0.12)"/><rect class="cls-4" x="120.06" y="29.83" width="10" height="10" transform="translate(0.24 0.15) rotate(0.12)"/><rect class="cls-2" x="130.06" y="29.85" width="10" height="10" transform="translate(0.24 0.13) rotate(0.12)"/><rect class="cls-2" x="150.06" y="29.89" width="10" height="10" transform="translate(0.24 0.09) rotate(0.12)"/><rect class="cls-4" x="200.06" y="30" width="10" height="10" transform="translate(0.24 -0.02) rotate(0.12)"/><rect class="cls-4" x="250.06" y="30.11" width="10" height="10" transform="translate(0.24 -0.13) rotate(0.12)"/><rect class="cls-2" x="260.06" y="30.13" width="10" height="10" transform="translate(0.24 -0.15) rotate(0.12)"/><rect class="cls-1" x="0.04" y="39.57" width="10" height="10" transform="translate(0.26 0.41) rotate(0.12)"/><rect class="cls-6" x="10.04" y="39.59" width="10" height="10" transform="translate(0.26 0.39) rotate(0.12)"/><rect class="cls-1" x="40.04" y="39.66" width="10" height="10" transform="translate(0.26 0.33) rotate(0.12)"/><rect class="cls-1" x="70.04" y="39.72" width="10" height="10" transform="translate(0.26 0.26) rotate(0.12)"/><rect class="cls-1" x="80.04" y="39.74" width="10" height="10" transform="translate(0.26 0.24) rotate(0.12)"/><rect class="cls-2" x="100.04" y="39.79" width="10" height="10" transform="translate(0.26 0.2) rotate(0.12)"/><rect class="cls-2" x="130.04" y="39.85" width="10" height="10" transform="translate(0.26 0.13) rotate(0.12)"/><rect class="cls-4" x="150.04" y="39.89" width="10" height="10" transform="translate(0.26 0.09) rotate(0.12)"/><rect class="cls-2" x="200.04" y="40" width="10" height="10" transform="translate(0.26 -0.02) rotate(0.12)"/><rect class="cls-2" x="250.04" y="40.11" width="10" height="10" transform="translate(0.26 -0.13) rotate(0.12)"/><rect class="cls-4" x="270.04" y="40.15" width="10" height="10" transform="translate(0.26 -0.17) rotate(0.12)"/><rect class="cls-1" x="0.02" y="49.57" width="10" height="10" transform="translate(0.28 0.41) rotate(0.12)"/><rect class="cls-1" x="10.02" y="49.59" width="10" height="10" transform="translate(0.28 0.39) rotate(0.12)"/><rect class="cls-1" x="20.02" y="49.61" width="10" height="10" transform="translate(0.28 0.37) rotate(0.12)"/><rect class="cls-1" x="30.02" y="49.64" width="10" height="10" transform="translate(0.28 0.35) rotate(0.12)"/><rect class="cls-1" x="40.02" y="49.66" width="10" height="10" transform="translate(0.28 0.33) rotate(0.12)"/><rect class="cls-1" x="50.02" y="49.68" width="10" height="10" transform="translate(0.28 0.3) rotate(0.12)"/><rect class="cls-1" x="60.02" y="49.7" width="10" height="10" transform="translate(0.28 0.28) rotate(0.12)"/><rect class="cls-1" x="70.02" y="49.72" width="10" height="10" transform="translate(0.28 0.26) rotate(0.12)"/><rect class="cls-1" x="80.02" y="49.74" width="10" height="10" transform="translate(0.28 0.24) rotate(0.12)"/><rect class="cls-2" x="100.02" y="49.79" width="10" height="10" transform="translate(0.28 0.2) rotate(0.12)"/><rect class="cls-4" x="110.02" y="49.81" width="10" height="10" transform="translate(0.28 0.18) rotate(0.12)"/><rect class="cls-2" x="120.02" y="49.83" width="10" height="10" transform="translate(0.28 0.15) rotate(0.12)"/><rect class="cls-3" x="130.02" y="49.85" width="10" height="10" transform="translate(0.28 0.13) rotate(0.12)"/><rect class="cls-2" x="150.02" y="49.89" width="10" height="10" transform="translate(0.28 0.09) rotate(0.12)"/><rect class="cls-2" x="160.02" y="49.91" width="10" height="10" transform="translate(0.28 0.07) rotate(0.12)"/><rect class="cls-4" x="170.02" y="49.94" width="10" height="10" transform="translate(0.28 0.05) rotate(0.12)"/><rect class="cls-2" x="180.02" y="49.96" width="10" height="10" transform="translate(0.28 0.02) rotate(0.12)"/><rect class="cls-4" x="200.02" y="50" width="10" height="10" transform="translate(0.28 -0.02) rotate(0.12)"/><rect class="cls-2" x="210.02" y="50.02" width="10" height="10" transform="translate(0.28 -0.04) rotate(0.12)"/><rect class="cls-3" x="220.02" y="50.04" width="10" height="10" transform="translate(0.28 -0.06) rotate(0.12)"/><rect class="cls-4" x="230.02" y="50.06" width="10" height="10" transform="translate(0.28 -0.08) rotate(0.12)"/><rect class="cls-2" x="250.02" y="50.11" width="10" height="10" transform="translate(0.28 -0.13) rotate(0.12)"/><rect class="cls-2" x="280.02" y="50.17" width="10" height="10" transform="translate(0.28 -0.19) rotate(0.12)"/><rect class="cls-1" y="59.57" width="10" height="10" transform="translate(0.3 0.41) rotate(0.12)"/><rect class="cls-1" x="10" y="59.59" width="10" height="10" transform="translate(0.3 0.39) rotate(0.12)"/><rect class="cls-5" x="20" y="59.61" width="10" height="10" transform="translate(0.3 0.37) rotate(0.12)"/><rect class="cls-1" x="30" y="59.64" width="10" height="10" transform="translate(0.3 0.35) rotate(0.12)"/><rect class="cls-1" x="40" y="59.66" width="10" height="10" transform="translate(0.3 0.33) rotate(0.12)"/><rect class="cls-1" x="50" y="59.68" width="10" height="10" transform="translate(0.3 0.3) rotate(0.12)"/><rect class="cls-1" x="60" y="59.7" width="10" height="10" transform="translate(0.3 0.28) rotate(0.12)"/><rect class="cls-6" x="70" y="59.72" width="10" height="10" transform="translate(0.3 0.26) rotate(0.12)"/><rect class="cls-1" x="80" y="59.74" width="10" height="10" transform="translate(0.3 0.24) rotate(0.12)"/><rect class="cls-1" x="-0.02" y="69.57" width="10" height="10" transform="translate(0.32 0.41) rotate(0.12)"/><rect class="cls-1" x="9.98" y="69.59" width="10" height="10" transform="translate(0.32 0.39) rotate(0.12)"/><rect class="cls-1" x="19.98" y="69.61" width="10" height="10" transform="translate(0.32 0.37) rotate(0.12)"/><rect class="cls-1" x="29.98" y="69.64" width="10" height="10" transform="translate(0.32 0.35) rotate(0.12)"/><rect class="cls-1" x="39.98" y="69.66" width="10" height="10" transform="translate(0.32 0.33) rotate(0.12)"/><rect class="cls-1" x="49.98" y="69.68" width="10" height="10" transform="translate(0.32 0.3) rotate(0.12)"/><rect class="cls-5" x="59.98" y="69.7" width="10" height="10" transform="translate(0.32 0.28) rotate(0.12)"/><rect class="cls-1" x="69.98" y="69.72" width="10" height="10" transform="translate(0.32 0.26) rotate(0.12)"/><rect class="cls-1" x="79.98" y="69.74" width="10" height="10" transform="translate(0.32 0.24) rotate(0.12)"/><rect class="cls-7" x="99.98" y="69.79" width="10" height="10" transform="translate(0.32 0.2) rotate(0.12)"/><rect class="cls-7" x="109.98" y="69.81" width="10" height="10" transform="translate(0.32 0.18) rotate(0.12)"/><rect class="cls-7" x="119.98" y="69.83" width="10" height="10" transform="translate(0.32 0.15) rotate(0.12)"/><rect class="cls-7" x="129.98" y="69.85" width="10" height="10" transform="translate(0.32 0.13) rotate(0.12)"/><rect class="cls-7" x="139.98" y="69.87" width="10" height="10" transform="translate(0.32 0.11) rotate(0.12)"/><rect class="cls-7" x="159.98" y="69.91" width="10" height="10" transform="translate(0.32 0.07) rotate(0.12)"/><rect class="cls-7" x="169.98" y="69.94" width="10" height="10" transform="translate(0.33 0.05) rotate(0.12)"/><rect class="cls-7" x="179.98" y="69.96" width="10" height="10" transform="translate(0.33 0.03) rotate(0.12)"/><rect class="cls-7" x="189.98" y="69.98" width="10" height="10" transform="translate(0.33 0) rotate(0.12)"/><rect class="cls-7" x="209.98" y="70.02" width="10" height="10" transform="translate(0.33 -0.04) rotate(0.12)"/><rect class="cls-7" x="219.98" y="70.04" width="10" height="10" transform="translate(0.33 -0.06) rotate(0.12)"/><rect class="cls-7" x="229.98" y="70.06" width="10" height="10" transform="translate(0.33 -0.08) rotate(0.12)"/><rect class="cls-7" x="239.98" y="70.09" width="10" height="10" transform="translate(0.33 -0.1) rotate(0.12)"/><rect class="cls-7" x="259.98" y="70.13" width="10" height="10" transform="translate(0.33 -0.15) rotate(0.12)"/><rect class="cls-7" x="289.98" y="70.19" width="10" height="10" transform="translate(0.33 -0.21) rotate(0.12)"/><rect class="cls-7" x="309.98" y="70.24" width="10" height="10" transform="translate(0.33 -0.25) rotate(0.12)"/><rect class="cls-7" x="319.98" y="70.26" width="10" height="10" transform="translate(0.33 -0.28) rotate(0.12)"/><rect class="cls-7" x="329.98" y="70.28" width="10" height="10" transform="translate(0.33 -0.3) rotate(0.12)"/><rect class="cls-7" x="339.98" y="70.3" width="10" height="10" transform="translate(0.33 -0.32) rotate(0.12)"/><rect class="cls-7" x="359.98" y="70.34" width="10" height="10" transform="translate(0.33 -0.36) rotate(0.12)"/><rect class="cls-7" x="369.98" y="70.36" width="10" height="10" transform="translate(0.33 -0.38) rotate(0.12)"/><rect class="cls-7" x="379.98" y="70.39" width="10" height="10" transform="translate(0.33 -0.4) rotate(0.12)"/><rect class="cls-7" x="389.98" y="70.41" width="10" height="10" transform="translate(0.33 -0.43) rotate(0.12)"/><rect class="cls-7" x="399.98" y="70.43" width="10" height="10" transform="translate(0.33 -0.45) rotate(0.12)"/><rect class="cls-1" x="-0.04" y="79.57" width="10" height="10" transform="translate(0.35 0.41) rotate(0.12)"/><rect class="cls-1" x="9.96" y="79.59" width="10" height="10" transform="translate(0.35 0.39) rotate(0.12)"/><rect class="cls-1" x="39.96" y="79.66" width="10" height="10" transform="translate(0.35 0.33) rotate(0.12)"/><rect class="cls-1" x="69.96" y="79.72" width="10" height="10" transform="translate(0.35 0.26) rotate(0.12)"/><rect class="cls-1" x="79.96" y="79.74" width="10" height="10" transform="translate(0.35 0.24) rotate(0.12)"/><rect class="cls-7" x="99.96" y="79.79" width="10" height="10" transform="translate(0.35 0.2) rotate(0.12)"/><rect class="cls-7" x="119.96" y="79.83" width="10" height="10" transform="translate(0.35 0.15) rotate(0.12)"/><rect class="cls-7" x="139.96" y="79.87" width="10" height="10" transform="translate(0.35 0.11) rotate(0.12)"/><rect class="cls-7" x="159.96" y="79.91" width="10" height="10" transform="translate(0.35 0.07) rotate(0.12)"/><rect class="cls-7" x="189.96" y="79.98" width="10" height="10" transform="translate(0.35 0) rotate(0.12)"/><rect class="cls-7" x="209.96" y="80.02" width="10" height="10" transform="translate(0.35 -0.04) rotate(0.12)"/><rect class="cls-7" x="239.96" y="80.09" width="10" height="10" transform="translate(0.35 -0.1) rotate(0.12)"/><rect class="cls-7" x="259.96" y="80.13" width="10" height="10" transform="translate(0.35 -0.15) rotate(0.12)"/><rect class="cls-7" x="279.96" y="80.17" width="10" height="10" transform="translate(0.35 -0.19) rotate(0.12)"/><rect class="cls-7" x="309.96" y="80.24" width="10" height="10" transform="translate(0.35 -0.25) rotate(0.12)"/><rect class="cls-7" x="359.96" y="80.34" width="10" height="10" transform="translate(0.35 -0.36) rotate(0.12)"/><rect class="cls-7" x="379.96" y="80.39" width="10" height="10" transform="translate(0.35 -0.4) rotate(0.12)"/><rect class="cls-7" x="399.96" y="80.43" width="10" height="10" transform="translate(0.35 -0.45) rotate(0.12)"/><rect class="cls-1" x="-0.06" y="89.57" width="10" height="10" transform="translate(0.37 0.41) rotate(0.12)"/><rect class="cls-1" x="19.94" y="89.61" width="10" height="10" transform="translate(0.37 0.37) rotate(0.12)"/><rect class="cls-1" x="29.94" y="89.64" width="10" height="10" transform="translate(0.37 0.35) rotate(0.12)"/><rect class="cls-1" x="59.94" y="89.7" width="10" height="10" transform="translate(0.37 0.28) rotate(0.12)"/><rect class="cls-1" x="79.94" y="89.74" width="10" height="10" transform="translate(0.37 0.24) rotate(0.12)"/><rect class="cls-7" x="99.94" y="89.79" width="10" height="10" transform="translate(0.37 0.2) rotate(0.12)"/><rect class="cls-7" x="119.94" y="89.83" width="10" height="10" transform="translate(0.37 0.15) rotate(0.12)"/><rect class="cls-7" x="139.94" y="89.87" width="10" height="10" transform="translate(0.37 0.11) rotate(0.12)"/><rect class="cls-7" x="159.94" y="89.91" width="10" height="10" transform="translate(0.37 0.07) rotate(0.12)"/><rect class="cls-7" x="189.94" y="89.98" width="10" height="10" transform="translate(0.37 0) rotate(0.12)"/><rect class="cls-7" x="209.94" y="90.02" width="10" height="10" transform="translate(0.37 -0.04) rotate(0.12)"/><rect class="cls-7" x="239.94" y="90.09" width="10" height="10" transform="translate(0.37 -0.1) rotate(0.12)"/><rect class="cls-7" x="259.94" y="90.13" width="10" height="10" transform="translate(0.37 -0.15) rotate(0.12)"/><rect class="cls-7" x="269.94" y="90.15" width="10" height="10" transform="translate(0.37 -0.17) rotate(0.12)"/><rect class="cls-7" x="309.94" y="90.24" width="10" height="10" transform="translate(0.37 -0.25) rotate(0.12)"/><rect class="cls-7" x="319.94" y="90.26" width="10" height="10" transform="translate(0.37 -0.27) rotate(0.12)"/><rect class="cls-7" x="329.94" y="90.28" width="10" height="10" transform="translate(0.37 -0.3) rotate(0.12)"/><rect class="cls-7" x="339.94" y="90.3" width="10" height="10" transform="translate(0.37 -0.32) rotate(0.12)"/><rect class="cls-7" x="359.94" y="90.34" width="10" height="10" transform="translate(0.37 -0.36) rotate(0.12)"/><rect class="cls-7" x="379.94" y="90.39" width="10" height="10" transform="translate(0.37 -0.4) rotate(0.12)"/><rect class="cls-7" x="399.94" y="90.43" width="10" height="10" transform="translate(0.37 -0.45) rotate(0.12)"/><rect class="cls-1" x="-0.09" y="99.57" width="10" height="10" transform="translate(0.39 0.41) rotate(0.12)"/><rect class="cls-1" x="9.91" y="99.59" width="10" height="10" transform="translate(0.39 0.39) rotate(0.12)"/><rect class="cls-1" x="19.91" y="99.61" width="10" height="10" transform="translate(0.39 0.37) rotate(0.12)"/><rect class="cls-1" x="29.91" y="99.64" width="10" height="10" transform="translate(0.39 0.35) rotate(0.12)"/><rect class="cls-1" x="39.91" y="99.66" width="10" height="10" transform="translate(0.39 0.33) rotate(0.12)"/><rect class="cls-1" x="49.91" y="99.68" width="10" height="10" transform="translate(0.39 0.3) rotate(0.12)"/><rect class="cls-1" x="59.91" y="99.7" width="10" height="10" transform="translate(0.39 0.28) rotate(0.12)"/><rect class="cls-1" x="69.91" y="99.72" width="10" height="10" transform="translate(0.39 0.26) rotate(0.12)"/><rect class="cls-5" x="79.91" y="99.74" width="10" height="10" transform="translate(0.39 0.24) rotate(0.12)"/><rect class="cls-7" x="99.91" y="99.79" width="10" height="10" transform="translate(0.39 0.2) rotate(0.12)"/><rect class="cls-7" x="119.91" y="99.83" width="10" height="10" transform="translate(0.39 0.15) rotate(0.12)"/><rect class="cls-7" x="139.91" y="99.87" width="10" height="10" transform="translate(0.39 0.11) rotate(0.12)"/><rect class="cls-7" x="159.91" y="99.91" width="10" height="10" transform="translate(0.39 0.07) rotate(0.12)"/><rect class="cls-7" x="169.91" y="99.94" width="10" height="10" transform="translate(0.39 0.05) rotate(0.12)"/><rect class="cls-7" x="179.91" y="99.96" width="10" height="10" transform="translate(0.39 0.03) rotate(0.12)"/><rect class="cls-7" x="189.91" y="99.98" width="10" height="10" transform="translate(0.39 0) rotate(0.12)"/><rect class="cls-7" x="209.91" y="100.02" width="10" height="10" transform="translate(0.39 -0.04) rotate(0.12)"/><rect class="cls-7" x="219.91" y="100.04" width="10" height="10" transform="translate(0.39 -0.06) rotate(0.12)"/><rect class="cls-7" x="229.91" y="100.06" width="10" height="10" transform="translate(0.39 -0.08) rotate(0.12)"/><rect class="cls-7" x="239.91" y="100.09" width="10" height="10" transform="translate(0.39 -0.1) rotate(0.12)"/><rect class="cls-7" x="259.91" y="100.13" width="10" height="10" transform="translate(0.39 -0.15) rotate(0.12)"/><rect class="cls-7" x="269.91" y="100.15" width="10" height="10" transform="translate(0.39 -0.17) rotate(0.12)"/><rect class="cls-7" x="309.91" y="100.24" width="10" height="10" transform="translate(0.39 -0.25) rotate(0.12)"/><rect class="cls-7" x="379.91" y="100.39" width="10" height="10" transform="translate(0.39 -0.4) rotate(0.12)"/><rect class="cls-5" x="-0.11" y="109.57" width="10" height="10" transform="translate(0.41 0.41) rotate(0.12)"/><rect class="cls-1" x="9.89" y="109.59" width="10" height="10" transform="translate(0.41 0.39) rotate(0.12)"/><rect class="cls-1" x="29.89" y="109.64" width="10" height="10" transform="translate(0.41 0.35) rotate(0.12)"/><rect class="cls-1" x="39.89" y="109.66" width="10" height="10" transform="translate(0.41 0.33) rotate(0.12)"/><rect class="cls-1" x="49.89" y="109.68" width="10" height="10" transform="translate(0.41 0.3) rotate(0.12)"/><rect class="cls-1" x="69.89" y="109.72" width="10" height="10" transform="translate(0.41 0.26) rotate(0.12)"/><rect class="cls-1" x="79.89" y="109.74" width="10" height="10" transform="translate(0.41 0.24) rotate(0.12)"/><rect class="cls-7" x="99.89" y="109.79" width="10" height="10" transform="translate(0.41 0.2) rotate(0.12)"/><rect class="cls-7" x="119.89" y="109.83" width="10" height="10" transform="translate(0.41 0.15) rotate(0.12)"/><rect class="cls-7" x="139.89" y="109.87" width="10" height="10" transform="translate(0.41 0.11) rotate(0.12)"/><rect class="cls-7" x="159.89" y="109.91" width="10" height="10" transform="translate(0.41 0.07) rotate(0.12)"/><rect class="cls-7" x="189.89" y="109.98" width="10" height="10" transform="translate(0.41 0) rotate(0.12)"/><rect class="cls-7" x="209.89" y="110.02" width="10" height="10" transform="translate(0.41 -0.04) rotate(0.12)"/><rect class="cls-7" x="229.89" y="110.06" width="10" height="10" transform="translate(0.41 -0.08) rotate(0.12)"/><rect class="cls-7" x="259.89" y="110.13" width="10" height="10" transform="translate(0.41 -0.15) rotate(0.12)"/><rect class="cls-7" x="279.89" y="110.17" width="10" height="10" transform="translate(0.41 -0.19) rotate(0.12)"/><rect class="cls-7" x="309.89" y="110.24" width="10" height="10" transform="translate(0.41 -0.25) rotate(0.12)"/><rect class="cls-7" x="379.89" y="110.39" width="10" height="10" transform="translate(0.41 -0.4) rotate(0.12)"/><rect class="cls-1" x="-0.13" y="119.57" width="10" height="10" transform="translate(0.43 0.41) rotate(0.12)"/><rect class="cls-1" x="39.87" y="119.66" width="10" height="10" transform="translate(0.43 0.33) rotate(0.12)"/><rect class="cls-1" x="79.87" y="119.74" width="10" height="10" transform="translate(0.43 0.24) rotate(0.12)"/><rect class="cls-7" x="99.87" y="119.79" width="10" height="10" transform="translate(0.43 0.2) rotate(0.12)"/><rect class="cls-7" x="119.87" y="119.83" width="10" height="10" transform="translate(0.43 0.15) rotate(0.12)"/><rect class="cls-7" x="139.87" y="119.87" width="10" height="10" transform="translate(0.43 0.11) rotate(0.12)"/><rect class="cls-7" x="159.87" y="119.91" width="10" height="10" transform="translate(0.43 0.07) rotate(0.12)"/><rect class="cls-7" x="189.87" y="119.98" width="10" height="10" transform="translate(0.43 0) rotate(0.12)"/><rect class="cls-7" x="209.87" y="120.02" width="10" height="10" transform="translate(0.43 -0.04) rotate(0.12)"/><rect class="cls-7" x="239.87" y="120.09" width="10" height="10" transform="translate(0.43 -0.1) rotate(0.12)"/><rect class="cls-7" x="259.87" y="120.13" width="10" height="10" transform="translate(0.43 -0.15) rotate(0.12)"/><rect class="cls-7" x="289.87" y="120.19" width="10" height="10" transform="translate(0.43 -0.21) rotate(0.12)"/><rect class="cls-7" x="309.87" y="120.24" width="10" height="10" transform="translate(0.43 -0.25) rotate(0.12)"/><rect class="cls-7" x="319.87" y="120.26" width="10" height="10" transform="translate(0.43 -0.27) rotate(0.12)"/><rect class="cls-7" x="329.87" y="120.28" width="10" height="10" transform="translate(0.43 -0.3) rotate(0.12)"/><rect class="cls-7" x="339.87" y="120.3" width="10" height="10" transform="translate(0.43 -0.32) rotate(0.12)"/><rect class="cls-7" x="369.87" y="120.36" width="10" height="10" transform="translate(0.43 -0.38) rotate(0.12)"/><rect class="cls-7" x="379.87" y="120.39" width="10" height="10" transform="translate(0.43 -0.4) rotate(0.12)"/><rect class="cls-7" x="389.87" y="120.41" width="10" height="10" transform="translate(0.43 -0.42) rotate(0.12)"/><rect class="cls-1" x="49.94" y="89.68" width="10" height="10" transform="translate(0.37 0.3) rotate(0.12)"/></svg>