<?xml version="1.0" encoding="utf-8"?>
<!-- Generator: Adobe Illustrator 22.0.0, SVG Export Plug-In . SVG Version: 6.00 Build 0)  -->
<svg version="1.1" id="Layer_1" xmlns="http://www.w3.org/2000/svg" xmlns:xlink="http://www.w3.org/1999/xlink" x="0px" y="0px"
	 viewBox="0 0 50 60" style="enable-background:new 0 0 50 60;" xml:space="preserve">
<style type="text/css">
	.st0{fill:#B6B7B7;stroke:#FFFFFF;stroke-width:5.000000e-02;stroke-miterlimit:10;}
	.st1{fill:#9B9B9B;stroke:#FFFFFF;stroke-width:5.000000e-02;stroke-miterlimit:10;}
	.st2{fill:#868787;stroke:#FFFFFF;stroke-width:5.000000e-02;stroke-miterlimit:10;}
</style>
<rect x="0" class="st0" width="10" height="10"/>
<rect x="10" y="0" class="st1" width="10" height="10"/>
<rect x="20" y="0" class="st1" width="10" height="10"/>
<rect x="30" y="0" class="st1" width="10" height="10"/>
<rect x="0" y="10" class="st1" width="10" height="10"/>
<rect x="0" y="30" class="st1" width="10" height="10"/>
<rect x="0" y="20" class="st2" width="10" height="10"/>
<rect x="0" y="40" class="st0" width="10" height="10"/>
<rect x="0" y="50" class="st1" width="10" height="10"/>
<rect x="40" y="30" class="st1" width="10" height="10"/>
<rect x="40" y="50" class="st2" width="10" height="10"/>
<rect x="40" y="40" class="st1" width="10" height="10"/>
<rect x="40" y="0" class="st2" width="10" height="10"/>
<rect x="40" y="10" class="st1" width="10" height="10"/>
<rect x="40" y="20" class="st0" width="10" height="10"/>
</svg>
